<svg xmlns="http://www.w3.org/2000/svg" width="96" height="96" viewBox="0 0 96 96">
  <rect width="96" height="96" rx="18" fill="#1a7671"/>
  <clipPath id="g"><circle cx="48" cy="48" r="21"/></clipPath>
  <circle cx="48" cy="48" r="21" fill="#f0faf9"/>
  <g clip-path="url(#g)" fill="#b9dfdc">
    <path d="M22 48q3-15 17-13 9 2 7 11-2 7-10 9-12 3-14-7z"/>
    <path d="M50 22q11-3 16 6 3 7-5 9-9 2-12-4-3-7 1-11z"/>
    <path d="M60 46q10-2 11 6 1 7-7 9-8 2-10-5-2-7 6-10z"/>
    <path d="M40 61q6-2 8 3 1 5-5 6-6 1-7-3-1-4 4-6z"/>
  </g>
  <g stroke="#b9dfdc" stroke-width="7" fill="none" stroke-linecap="round">
    <path d="M62 17.5A34 34 0 0 0 22 21.5A34 34 0 0 0 20 66"/>
    <path d="M34 78.5A34 34 0 0 0 74 74.5A34 34 0 0 0 76 30"/>
  </g>
  <g fill="#b9dfdc">
    <path d="M60 14q9-1 14 2-4 3-9 3.5-5 .5-7-2 0-3 2-3.5z"/>
    <path d="M36 82q-9 1-14-2 4-3 9-3.5 5-.5 7 2 0 3-2 3.5z"/>
  </g>
</svg>
